<svg version="1.1" xmlns="http://www.w3.org/2000/svg" width="512" height="512" viewBox="0 0 512 512">
  <defs>
    <linearGradient id="bg" x1="0" y1="0" x2="1" y2="1">
      <stop offset="0%" stop-color="#5a7a58"/>
      <stop offset="100%" stop-color="#3d5c3b"/>
    </linearGradient>
  </defs>

  <rect width="512" height="512" rx="110" fill="url(#bg)"/>

  <!-- Paw paths from original, scaled 92% and centered, fill changed to white -->
  <g transform="translate(20.48 20.48) scale(0.92)" fill="white">
    <path d="M0 0 C0.78117188 0.61488281 1.56234375 1.22976562 2.3671875 1.86328125 C3.12773437 2.44722656 3.88828125 3.03117187 4.671875 3.6328125 C14.96793118 12.09410434 20.83168686 23.37328217 26.5390625 35.1328125 C34.20371384 50.89454117 43.95776049 60.60716775 59.66796875 68.52734375 C68.29010098 72.88487644 74.63724482 78.05392922 81.3671875 84.86328125 C82.03492188 85.52070313 82.70265625 86.178125 83.390625 86.85546875 C96.55536285 100.73503399 102.64924958 120.24304085 102.32861328 139.13623047 C101.30860942 159.62823946 93.95013975 177.23072712 79.3671875 191.86328125 C78.69171875 192.56195313 78.01625 193.260625 77.3203125 193.98046875 C62.03825655 208.74546265 41.52170619 213.44369743 20.88671875 213.1328125 C8.31481585 212.69302338 -2.47380525 208.68612169 -13.90771484 203.734375 C-32.06195519 195.88549975 -52.89121277 194.89018485 -71.6328125 201.86328125 C-75.69070933 203.50042083 -79.69936005 205.24870543 -83.71240234 206.9921875 C-101.73019909 214.7188041 -123.11779776 215.89564914 -141.6328125 208.86328125 C-150.76819311 205.09776355 -159.27389143 200.52488521 -166.6328125 193.86328125 C-167.2928125 193.29480469 -167.9528125 192.72632813 -168.6328125 192.140625 C-181.36308545 180.42976844 -189.49929849 163.24278748 -190.85424805 146.05419922 C-191.73419352 123.84354996 -187.918523 103.88529964 -172.6328125 86.86328125 C-171.54033203 85.63158203 -171.54033203 85.63158203 -170.42578125 84.375 C-163.26163355 76.74790253 -155.10060176 71.62858343 -145.8203125 66.90625 C-129.84080851 58.76859553 -120.93479007 48.43106136 -112.8203125 32.55078125 C-102.72142213 12.81581007 -88.68119543 -2.14366194 -67.6328125 -10.13671875 C-45.36705109 -17.28110058 -18.84982329 -14.06208862 0 0 Z" transform="translate(300.6328125,236.13671875)"/>
    <path d="M0 0 C13.0222577 10.67201598 19.16220703 26.35176802 21.12109375 42.73828125 C22.89199407 68.95306427 16.68266018 95.1593479 -0.73120117 115.36181641 C-10.73439347 126.55490808 -23.41476795 135.8888249 -38.859375 136.94140625 C-52.6898284 137.1435566 -63.16103154 133.15944994 -73.50390625 123.86328125 C-84.06422972 112.75996242 -89.03790775 96.77431506 -89.87890625 81.73828125 C-89.93175781 80.89523438 -89.98460937 80.0521875 -90.0390625 79.18359375 C-90.86149286 53.36643195 -81.61631969 29.18777557 -64.87890625 9.73828125 C-47.51244948 -8.6371422 -21.49918965 -15.44415941 0 0 Z" transform="translate(359.87890625,71.26171875)"/>
    <path d="M0 0 C19.18645039 14.22054558 30.18044362 34.45229695 34.3359375 57.78515625 C37.36385023 78.33763236 35.6145312 99.97701513 23.53515625 117.53515625 C16.00403305 127.2896048 6.89601175 133.65360445 -5.34375 135.96875 C-19.50864241 137.35485877 -32.21249072 132.84931266 -43.40625 124.28125 C-61.99971732 108.65575399 -73.20900406 85.12754149 -75.34375 60.96875 C-76.42749438 39.96078194 -72.86868045 18.86952508 -58.28125 2.6796875 C-41.5720029 -13.25377313 -18.38582623 -12.46854882 0 0 Z" transform="translate(206.34375,72.03125)"/>
    <path d="M0 0 C4.27210861 3.35422851 7.74684705 7.52608056 11.16015625 11.71875 C11.80082031 12.49863281 12.44148438 13.27851563 13.1015625 14.08203125 C27.37761911 32.49283615 34.27899069 55.84738803 31.47265625 79.03125 C29.27330499 91.77880564 24.35683005 103.27121088 13.97265625 111.4765625 C4.48467801 117.97909931 -5.47507522 119.74132029 -16.83984375 118.71875 C-35.20656081 115.09316874 -50.3670983 103.02164065 -60.8359375 87.8203125 C-73.41454358 68.17961568 -80.10982318 45.85049381 -75.71484375 22.53125 C-72.58345643 9.48872639 -66.60219421 -0.34362952 -55.41796875 -7.734375 C-37.30646596 -18.60127667 -15.99769599 -11.14064604 0 0 Z" transform="translate(118.83984375,190.28125)"/>
    <path d="M0 0 C10.94516773 7.97948606 16.6902744 19.58116892 18.9453125 32.765625 C21.66480727 56.2405091 15.03617991 79.87211458 0.484375 98.58984375 C-10.26636135 111.32152192 -23.53885434 122.75745003 -40.640625 125.33984375 C-53.27296311 126.20076325 -63.39028635 123.94994366 -73.640625 116.33984375 C-84.81548419 106.23029214 -88.90060307 91.69077109 -89.6328125 77.0625 C-89.68195887 53.64425471 -80.79877561 30.56854926 -64.265625 13.890625 C-62.96625 12.62798828 -62.96625 12.62798828 -61.640625 11.33984375 C-60.58875 10.30923828 -60.58875 10.30923828 -59.515625 9.2578125 C-43.53291974 -5.5326345 -19.3901948 -12.19058105 0 0 Z" transform="translate(450.640625,183.66015625)"/>
  </g>
</svg>
